HIERARCHY
ROOT root
{
	OFFSET 0.000000 0.000000 0.000000
	CHANNELS 6 Xposition Yposition Zposition Zrotation Yrotation Xrotation
	JOINT lhip
	{
		OFFSET 0.058581 -0.082280 -0.017664
		CHANNELS 3 Zrotation Yrotation Xrotation
		JOINT lknee
		{
			OFFSET 0.043451 -0.386469 0.008037
			CHANNELS 3 Zrotation Yrotation Xrotation
			JOINT lankle
			{
				OFFSET -0.014790 -0.426874 -0.037428
				CHANNELS 3 Zrotation Yrotation Xrotation
				JOINT ltoe
				{
					OFFSET 0.041054 -0.060286 0.122042
					CHANNELS 3 Zrotation Yrotation Xrotation
					End Site
					{
						OFFSET 0.000000 0.000000 0.000000
					}
				}
			}
		}
	}
	JOINT rhip
	{
		OFFSET -0.060310 -0.090513 -0.013543
		CHANNELS 3 Zrotation Yrotation Xrotation
		JOINT rknee
		{
			OFFSET -0.043257 -0.383688 -0.004843
			CHANNELS 3 Zrotation Yrotation Xrotation
			JOINT rankle
			{
				OFFSET 0.019056 -0.420046 -0.034562
				CHANNELS 3 Zrotation Yrotation Xrotation
				JOINT rtoe
				{
					OFFSET -0.034840 -0.062106 0.130323
					CHANNELS 3 Zrotation Yrotation Xrotation
					End Site
					{
						OFFSET 0.000000 0.000000 0.000000
					}
				}
			}
		}
	}
	JOINT lowerback
	{
		OFFSET 0.004439 0.124404 -0.038385
		CHANNELS 3 Zrotation Yrotation Xrotation
		JOINT upperback
		{
			OFFSET 0.004488 0.137956 0.026820
			CHANNELS 3 Zrotation Yrotation Xrotation
			JOINT chest
			{
				OFFSET -0.002265 0.056032 0.002855
				CHANNELS 3 Zrotation Yrotation Xrotation
				JOINT lowerneck
				{
					OFFSET -0.013390 0.211636 -0.033468
					CHANNELS 3 Zrotation Yrotation Xrotation
					JOINT upperneck
					{
						OFFSET 0.010113 0.088937 0.050410
						CHANNELS 3 Zrotation Yrotation Xrotation
						End Site
						{
							OFFSET 0.000000 0.000000 0.000000
						}
					}
				}
				JOINT lclavicle
				{
					OFFSET 0.071702 0.114000 -0.018898
					CHANNELS 3 Zrotation Yrotation Xrotation
					JOINT lshoulder
					{
						OFFSET 0.122921 0.045205 -0.019046
						CHANNELS 3 Zrotation Yrotation Xrotation
						JOINT lelbow
						{
							OFFSET 0.255332 -0.015649 -0.022946
							CHANNELS 3 Zrotation Yrotation Xrotation
							JOINT lwrist
							{
								OFFSET 0.265709 0.012698 -0.007375
								CHANNELS 3 Zrotation Yrotation Xrotation
								End Site
								{
									OFFSET 0.000000 0.000000 0.000000
								}
							}
						}
					}
				}
				JOINT rclavicle
				{
					OFFSET -0.082954 0.112472 -0.023707
					CHANNELS 3 Zrotation Yrotation Xrotation
					JOINT rshoulder
					{
						OFFSET -0.113228 0.046853 -0.008472
						CHANNELS 3 Zrotation Yrotation Xrotation
						JOINT relbow
						{
							OFFSET -0.260127 -0.014369 -0.031269
							CHANNELS 3 Zrotation Yrotation Xrotation
							JOINT rwrist
							{
								OFFSET -0.269108 0.006794 -0.006027
								CHANNELS 3 Zrotation Yrotation Xrotation
								End Site
								{
									OFFSET 0.000000 0.000000 0.000000
								}
							}
						}
					}
				}
			}
		}
	}
}
MOTION
Frames: 11
Frame Time: 0.033333
0.730745 0.925869 1.004755 154.133503 2.979545 85.151843 -1.137124 -2.750924 4.129587 -7.264392 -11.739601 5.347604 3.353212 6.155735 -8.109516 0.000000 -0.000000 0.000000 -3.119829 8.712501 -8.368013 3.593040 15.955597 15.014447 8.602215 6.594243 -10.581773 0.000000 -0.000000 0.000000 -3.160123 -0.632236 -1.858505 -0.528777 -4.679734 17.527518 -2.343988 0.163459 -1.887516 -4.245468 14.762011 6.199159 1.277261 9.910060 1.823552 -26.430604 -4.831563 -1.235202 -52.185651 -11.093565 9.787778 8.911700 -21.695832 -7.662892 -15.551940 -17.432636 1.713898 29.460951 5.182721 7.412801 53.973084 8.009508 12.505671 -8.733559 22.033655 -4.289661 18.745312 12.498636 3.039749 
0.735355 0.930689 1.005324 158.010172 3.081767 85.208028 -0.762058 -3.905334 4.343855 -7.426693 -13.325797 5.707740 3.036831 5.538824 -8.500809 0.000000 -0.000000 0.000000 -3.028831 9.310750 -8.326098 3.994530 17.123442 13.975158 9.016450 7.424857 -10.199075 0.000000 -0.000000 0.000000 -3.061384 -0.386413 -1.903956 -0.561384 -4.653992 17.816513 -2.392754 0.206332 -1.939969 -4.507625 14.836122 6.299846 1.318710 9.950407 1.857039 -26.369248 -4.990076 -1.322373 -52.163022 -11.134885 9.922555 8.526721 -20.467198 -7.612960 -14.907618 -17.462622 1.651221 29.443954 5.120937 7.461371 53.888148 8.153486 12.537330 -8.697925 21.851191 -4.382655 18.538394 12.600662 3.074617 
0.738930 0.935265 1.005256 162.387337 2.985504 85.326685 -0.583316 -4.674083 4.193018 -7.771912 -15.310606 6.586763 2.581956 4.685218 -8.965502 0.000000 -0.000000 0.000000 -3.262433 9.757413 -8.115067 4.321334 17.656259 13.047891 9.136433 7.835879 -10.581137 0.000000 -0.000000 0.000000 -3.184623 -0.293120 -1.675958 -0.579403 -4.618608 17.730699 -2.310405 0.101586 -1.927620 -4.692804 14.770581 6.230242 1.380881 10.010461 2.084473 -26.491230 -5.048117 -1.264631 -51.961525 -11.131991 9.925047 8.504140 -19.510257 -7.386054 -14.583026 -17.436407 1.750088 29.520973 5.036922 7.436873 53.523869 8.265505 12.479741 -8.433571 21.930391 -4.122757 18.449710 12.390264 3.146481 
0.742720 0.938830 1.005038 166.556195 2.817552 85.912017 -0.406812 -5.239975 3.472383 -8.063964 -17.011644 7.400214 2.477048 3.633030 -9.215713 0.000000 -0.000000 0.000000 -3.451305 9.519309 -8.583676 4.457436 18.011910 12.914601 9.197386 8.280918 -10.564166 0.000000 -0.000000 0.000000 -3.437505 -0.108086 -1.779019 -0.467252 -4.715028 17.515940 -2.291228 0.238102 -2.127987 -4.785698 14.555529 6.316184 1.430997 9.982517 2.214831 -26.585036 -4.906880 -1.356871 -51.586224 -10.851069 10.022930 8.229881 -18.578248 -7.386552 -14.354411 -17.187374 1.820871 29.638939 4.947673 7.382580 53.185173 8.232342 12.518323 -8.396693 21.861931 -4.136856 18.354796 12.363010 3.386317 
0.746508 0.943815 1.004863 170.760849 2.636972 85.846039 -0.154548 -6.125325 3.715042 -8.489803 -18.943300 7.754245 2.219218 2.829658 -9.588105 0.000000 -0.000000 0.000000 -3.700708 10.098612 -7.893663 4.680569 18.453530 12.873908 9.379729 8.362738 -10.597259 0.000000 -0.000000 0.000000 -3.306426 -0.013094 -1.463215 -0.721872 -4.589736 17.425760 -2.394815 0.338785 -2.107314 -4.848113 14.417069 6.122033 1.668517 9.547309 2.568359 -26.627123 -4.892342 -1.116298 -50.832293 -10.701951 9.550506 7.777557 -17.847852 -6.913920 -14.491941 -17.091403 1.615782 29.809510 5.001046 7.439141 52.880403 8.289652 12.426022 -8.269686 21.948838 -3.731184 17.983743 12.581369 3.609332 
0.750875 0.948477 1.004182 174.573167 2.354501 86.198763 0.060904 -6.671311 3.330918 -8.823137 -20.448487 8.321287 1.974532 2.139005 -10.395950 0.000000 -0.000000 0.000000 -3.909282 10.314599 -7.906950 4.802854 18.951630 13.535106 9.525348 8.493840 -10.824162 0.000000 -0.000000 0.000000 -3.618908 0.124821 -1.726236 -0.625090 -4.462887 17.449937 -2.400520 0.457831 -2.144222 -4.944160 14.555108 5.983616 1.716495 9.551650 2.494078 -26.586394 -4.675851 -1.065006 -50.334095 -10.185764 9.449182 7.797954 -17.165736 -6.875096 -14.264369 -17.057780 1.455356 29.764851 5.231063 7.593541 52.704313 8.488843 12.424989 -8.269344 21.829806 -3.654623 17.928985 12.673044 3.337598 
0.755480 0.953104 1.003851 178.106209 2.050094 86.406055 0.263830 -7.476597 3.061020 -9.225215 -21.790717 8.904500 1.646913 1.438109 -11.045757 0.000000 -0.000000 0.000000 -4.028034 10.425665 -7.594559 4.939017 19.397509 14.133891 9.521576 8.535189 -10.911629 0.000000 -0.000000 0.000000 -3.713598 0.483489 -1.766017 -0.703060 -4.332061 17.454652 -2.433223 0.553563 -2.164984 -4.978825 14.903478 5.933716 1.543725 9.897048 2.338678 -26.403872 -4.389838 -1.230904 -49.785551 -9.547853 9.324680 7.524897 -16.512586 -6.946361 -13.662356 -17.046754 1.056544 29.816680 5.332804 7.583177 52.517390 8.781834 12.429505 -8.169922 21.821654 -3.807283 17.705331 12.829456 3.090110 
0.760342 0.957938 1.003498 -178.410120 1.613002 86.661018 0.337192 -8.177501 2.601794 -9.732912 -22.972549 9.681745 1.431035 0.754449 -11.273595 0.000000 -0.000000 0.000000 -4.168557 10.529262 -7.031596 4.898836 19.762676 14.216507 9.319320 8.304295 -11.201874 0.000000 -0.000000 0.000000 -3.892450 0.830180 -2.003706 -0.851036 -4.215961 17.503561 -2.435215 0.590050 -2.043539 -4.921190 15.357237 5.744218 1.543758 10.086250 2.560129 -26.323630 -4.098418 -1.089316 -49.204490 -9.188771 8.884501 8.059547 -15.968725 -7.028591 -14.028668 -16.905726 1.080842 29.977652 5.488120 7.732313 52.365690 9.191144 12.325885 -8.425786 22.002994 -3.738131 17.799185 12.882513 3.091134 
0.765493 0.962805 1.003553 -175.243552 1.229977 86.803406 0.412463 -8.609303 2.291565 -10.130949 -23.497186 10.165697 1.114938 0.224334 -10.933159 0.000000 -0.000000 0.000000 -4.028136 10.497690 -6.489008 4.889930 19.762854 14.642220 8.836569 8.258353 -11.622900 0.000000 -0.000000 0.000000 -3.972373 1.167191 -1.847684 -0.965475 -4.065469 17.302546 -2.432240 0.717818 -2.136054 -5.048632 15.580754 5.891549 1.507921 10.223118 2.464884 -26.069998 -3.798095 -1.166500 -48.708285 -8.541438 8.642805 8.104232 -15.015264 -7.203522 -13.978482 -17.118870 0.978821 29.928656 5.560017 7.610008 52.442726 9.388540 12.290236 -8.288467 22.080323 -3.632600 18.315698 12.830665 2.911059 
0.770571 0.967223 1.003838 -171.903324 0.720742 87.061258 0.297448 -8.909263 1.584718 -10.516961 -23.750892 11.065737 0.968823 -0.216475 -10.603451 0.000000 -0.000000 0.000000 -3.997646 10.206174 -5.782919 4.538088 19.420087 14.816638 8.473716 7.631059 -11.490901 0.000000 -0.000000 0.000000 -3.988003 1.512343 -1.918855 -1.173519 -4.087378 17.297411 -2.470641 0.776223 -2.075426 -5.202813 15.879079 5.889203 1.483476 10.234002 2.337121 -25.606915 -3.668006 -1.194261 -48.447456 -8.203118 8.309043 8.287781 -13.882098 -7.665720 -14.128394 -16.928774 0.847769 29.900746 5.722701 7.607694 52.570175 9.596407 12.157535 -8.562623 22.480765 -3.802104 17.902206 13.096589 3.105971 
0.775614 0.971011 1.004172 -168.755223 0.391892 87.259159 0.351274 -9.490042 0.990060 -10.735594 -23.911345 11.668638 0.727253 -0.568964 -10.232464 0.000000 -0.000000 0.000000 -4.017566 9.823132 -5.047897 4.344636 19.441762 14.597954 7.805773 7.588166 -11.488255 0.000000 -0.000000 0.000000 -4.022426 1.618752 -1.808811 -1.027641 -4.256406 17.223698 -2.423924 1.223420 -2.011595 -5.513161 16.008736 6.044970 1.315508 10.382668 2.168915 -25.667103 -3.605099 -1.368517 -48.193234 -7.846726 8.055029 8.661747 -12.854794 -8.326698 -14.396642 -16.564453 0.975937 29.705129 5.917474 7.615103 52.501322 9.781923 12.024405 -8.733916 23.034892 -4.004545 17.912528 13.093580 3.374989 
